<svg width="48" height="48" viewBox="0 0 48 48" fill="none" xmlns="http://www.w3.org/2000/svg">
<g clip-path="url(#clip0_109_276)">
<circle cx="24" cy="24" r="24" fill="#36B1BB"/>
<path d="M4.38649 19.6446C5.14281 19.5825 5.72527 19.0276 6.45056 18.8795C6.47456 18.8777 6.49914 18.8683 6.52256 18.8631C5.89561 18.513 5.47882 17.879 4.82963 17.5606C4.13126 17.2181 3.27192 17.5682 3.15191 18.3702C3.04947 19.1002 3.65886 19.7037 4.38708 19.644L4.38649 19.6446ZM3.54119 19.1482C3.66413 19.2477 3.7812 19.3366 3.92287 19.4098C4.07038 19.4707 4.21439 19.5017 4.36951 19.5327C4.03936 19.5673 3.72559 19.4239 3.54061 19.1482H3.54119Z" fill="white"/>
<path d="M38.6027 30.1387C38.4113 29.5082 37.8727 28.9269 37.2089 28.8052C36.7997 28.7296 36.3941 28.869 36.0259 29.0358C35.8631 29.109 35.7133 29.1862 35.5669 29.2582C35.8947 28.9977 36.2149 28.7132 36.5158 28.3913C38.0554 26.7428 38.2936 24.183 37.086 22.2886C35.7759 20.2328 33.1311 18.8975 30.7908 20.0642C29.8758 20.5208 29.0902 21.3116 28.7185 22.2717C28.5282 22.7605 28.4123 23.2832 28.427 23.8095C28.4527 24.708 28.8432 25.3362 28.9632 25.5217C29.1119 25.7518 29.5538 26.415 30.4202 26.768C31.3551 27.1485 32.2062 26.9313 32.6335 26.8184C33.2576 26.6527 34.227 25.9081 34.0923 26.0135C33.9554 26.1212 33.2031 26.5655 32.8847 26.6673C32.5779 26.7657 32.3373 26.8084 32.2811 26.8184C31.8339 26.8956 31.4487 26.8886 31.2749 26.8687C30.2575 26.751 29.3168 25.8993 28.9421 24.9147C28.9011 24.807 28.7162 24.3024 28.7524 23.6239C28.7794 23.1205 28.9257 22.6258 29.1868 22.1487C29.812 21.0043 31.1619 20.135 32.4849 20.19C35.9872 20.3364 38.3059 24.4991 35.9954 27.3083C34.8299 28.7244 33.0702 29.5164 31.4435 30.2715C31.0413 30.4577 30.5999 30.5584 30.5385 30.439C30.5273 30.4167 30.532 30.3927 30.5338 30.3857C30.58 30.1761 30.4343 28.8912 29.8664 28.1267C29.4613 27.5817 28.5997 26.9752 27.8035 27.1204C26.278 27.3985 25.5691 30.3301 25.5902 30.34C25.6013 30.3453 26.0357 29.579 26.3951 28.8309C26.5286 28.5528 26.6094 28.3661 26.7978 28.1267C26.9688 27.9095 27.2515 27.5495 27.6531 27.4225C28.3398 27.2053 29.0978 27.7573 29.4643 28.177C29.5398 28.2637 30.2715 29.1295 29.9829 30.1463C29.8243 30.7041 29.4052 31.1449 29.0083 31.3615C28.8367 31.4552 28.5411 31.5746 27.9499 31.8129C27.7649 31.8872 27.6297 31.9399 27.6028 31.9504C26.4314 32.4088 23.7234 34.0871 23.7234 34.0871L25.0604 32.7817C23.779 32.383 22.9852 31.7414 22.5714 31.3463C21.7091 30.5233 21.352 29.6645 20.6378 27.9464C20.5038 27.6233 20.2655 26.9624 20.135 26.0866C20.0577 25.5674 20.0144 25.2548 20.0847 24.8304C20.2111 24.0688 20.6086 23.5326 20.8386 23.2223C20.9452 23.0789 21.1793 22.7804 21.5423 22.4684C21.7729 22.2705 21.9994 22.0756 22.3466 21.9158C22.9308 21.6459 23.4617 21.657 23.7035 21.6646C23.9183 21.6717 24.3539 21.6892 24.8596 21.9158C25.0522 22.0018 25.5088 22.2125 25.8647 22.6697C26.3711 23.3189 26.3775 24.0846 26.4173 24.077C26.4449 24.0717 26.4384 23.7117 26.3167 23.323C26.1094 22.6598 25.6733 22.2541 25.5123 22.1171C24.5429 21.2906 23.2996 21.4767 23.0496 21.5142C22.5561 21.5879 22.202 21.7606 22.0949 21.8157C22.0041 21.8619 21.6705 22.0387 21.1904 22.5193C20.9405 22.7692 20.5102 23.2001 20.1853 23.8259C19.5455 25.0581 19.6737 26.3547 19.7328 26.8915C19.837 27.8311 20.1005 28.2976 19.9044 28.4287C19.7006 28.5651 19.2534 28.1683 18.1939 27.3721C17.4182 26.7897 16.7831 26.3319 16.3827 26.0468C16.3827 26.041 16.3833 26.0357 16.3838 26.0298H16.3598C14.3941 24.6401 12.7744 23.1421 12.1796 21.0792C11.4005 18.3771 12.645 16.3078 13.6501 15.2301C15.5988 13.1403 19.583 12.5882 21.7021 14.5352C22.6557 15.4121 23.3142 16.9265 23.2258 18.4169C23.1889 19.0374 23.0286 19.5373 22.8998 19.8552C22.161 21.6816 20.4944 22.3846 20.2866 22.4684C19.1796 22.9144 18.2108 22.8032 17.7419 22.7435C17.2104 22.6756 16.5261 22.5854 15.8301 22.0896C15.0328 21.5212 14.7085 20.7526 14.5721 20.4295C14.3332 19.8622 14.2835 19.3863 14.27 19.2218C14.2255 18.6698 14.3163 18.2653 14.3204 18.2659C14.3262 18.2659 14.0505 19.2394 14.3204 20.2784C14.3204 20.2784 14.5557 21.1823 15.226 21.8882C16.5074 23.2376 19.4384 23.4501 21.3415 22.1165C23.8914 20.3299 24.1174 16.1041 22.2032 14.0084C20.7859 12.4571 18.3941 12.285 17.6945 12.3283C16.8896 12.3787 16.1046 12.556 15.3565 12.8575C15.3805 12.8312 15.4057 12.8083 15.4291 12.7802C17.1015 10.7917 13.7824 8.00994 12.0391 9.85449C11.6586 10.2566 11.4789 10.8174 11.5369 11.3367C11.5679 11.5972 11.6662 11.8436 11.8149 12.0468C11.9624 12.2499 12.1568 12.4097 12.3704 12.5151C12.5841 12.621 12.8159 12.6702 13.0378 12.6702C13.2614 12.669 13.4757 12.6081 13.653 12.5016C14.4708 12.0105 14.3268 10.7232 13.3598 10.523C13.4007 10.5265 13.4417 10.5318 13.4821 10.5406C13.6044 10.5681 13.7894 10.6342 13.9551 10.804C14.6382 11.5 13.9182 12.6433 13.0378 12.6269C11.6206 12.6005 11.2137 10.8526 12.1228 9.93468C13.7403 8.30146 16.762 10.8338 15.2072 12.5912C15.0615 12.7545 14.894 12.8979 14.7255 13.029C14.5563 13.1613 14.3848 13.2837 14.2173 13.4002C12.3242 14.7272 11.0053 16.6473 10.7624 18.9865C10.6693 19.8815 10.8297 21.0324 10.9339 21.4275C11.1417 22.2207 11.5211 22.946 11.9706 23.5601C12.3687 24.1039 12.813 24.567 13.2614 24.9843C13.0723 24.9012 12.8727 24.821 12.6544 24.7654C12.4144 24.7057 12.1492 24.6799 11.884 24.7285C9.8369 25.1055 9.37504 28.4387 11.4871 29.0891C12.0145 29.2571 12.5976 29.1757 13.0407 28.8982C13.262 28.7571 13.4411 28.5616 13.5594 28.3398C13.6782 28.1191 13.7391 27.8744 13.7408 27.6361C13.7438 27.3991 13.6876 27.1684 13.591 26.9682C13.4932 26.7663 13.3457 26.6 13.173 26.4859C13.0015 26.3711 12.8077 26.3079 12.621 26.2892C12.4337 26.2728 12.2534 26.2991 12.0971 26.3577C11.9396 26.415 11.8067 26.504 11.709 26.61C11.61 26.7147 11.5433 26.8336 11.5047 26.946C11.4256 27.1737 11.4485 27.3692 11.4783 27.491C11.4941 27.553 11.5123 27.5987 11.5246 27.6291C11.5386 27.659 11.5451 27.6742 11.5451 27.6742C11.5451 27.6742 11.5386 27.659 11.5257 27.6291C11.5134 27.5981 11.4959 27.553 11.4812 27.4904C11.4526 27.3686 11.4321 27.1737 11.5134 26.9483C11.5538 26.8377 11.6206 26.7224 11.7183 26.6187C12.2528 26.0568 13.2456 26.3108 13.5529 26.9864C13.6437 27.1825 13.6934 27.4061 13.6858 27.635C13.6788 27.8644 13.6167 28.0974 13.4985 28.3058C13.3808 28.5154 13.207 28.6969 12.9968 28.8256C12.5707 29.0803 12.0145 29.1464 11.5246 28.9773C10.4879 28.6178 10.0582 27.3996 10.3872 26.4062C10.6073 25.7371 11.2055 25.0938 11.9285 24.9914C12.1486 24.958 12.3705 24.9867 12.5812 25.047C13.5611 25.328 14.393 25.9631 15.1902 26.5737C17.2028 28.1162 19.3658 29.6212 21.0178 31.567C22.202 32.9614 22.6843 34.7913 22.8506 36.5773C23.042 38.6326 23.6936 41.5361 22.1376 43.7465C20.5319 46.0272 17.5177 46.4463 17.6922 47.0416C17.7455 47.2243 18.5498 47.3478 20.1572 47.5948C20.968 47.7195 21.4662 47.7716 21.7167 47.7962C22.6077 47.8828 23.0531 47.9262 23.5782 47.8969C24.0477 47.8711 24.2918 47.8149 24.9867 47.7962C25.3935 47.7851 25.6856 47.7939 25.7916 47.7962C26.333 47.8073 27.2275 47.7511 28.7601 47.4438C28.2935 47.0428 27.906 46.6266 27.5828 46.2145C24.5517 42.3498 25.7248 36.9929 26.144 35.3697C26.2616 35.1548 26.3828 34.9704 26.4964 34.8165C26.6503 34.6063 26.9073 34.2908 27.279 33.9735C27.5027 33.7827 27.6906 33.6393 27.7983 33.5842C27.9388 33.5128 28.0617 33.4227 28.1928 33.3419C29.2892 32.6652 30.5063 32.2139 31.6437 31.6138C32.7114 31.0513 33.7411 30.4214 34.8498 29.9373C35.108 29.8243 35.3849 29.6762 35.6781 29.5117C36.1213 29.2635 36.6399 28.9404 37.1709 29.02C37.7656 29.1096 38.2614 29.6352 38.4429 30.1867C38.6437 30.7919 38.5231 31.5272 38.0507 31.9779C37.8956 32.126 37.7077 32.2396 37.5051 32.3075C37.1006 32.448 36.6423 32.393 36.291 32.1828C36.1172 32.0775 35.9738 31.927 35.8766 31.7543C35.7794 31.5828 35.7273 31.3908 35.7226 31.2017C35.7021 30.5238 36.3344 29.9162 37.0269 30.1632C37.1551 30.2071 37.2645 30.278 37.3447 30.3629C37.4255 30.4483 37.4805 30.5437 37.5145 30.6368C37.5689 30.7884 37.5736 30.9547 37.535 31.1098C37.7346 30.3143 36.7716 29.8354 36.1453 30.2528C36.0024 30.3471 35.8813 30.484 35.7999 30.6509C35.7203 30.8154 35.6735 31.0056 35.6764 31.2011C35.6781 31.3978 35.7273 31.5998 35.8262 31.7818C36.2764 32.616 37.4723 32.6587 38.1291 32.0611C38.6501 31.5863 38.8023 30.796 38.6015 30.1363L38.6027 30.1387Z" fill="white"/>
<path d="M23.8421 32.3594C23.8421 32.3594 25.3823 32.9998 25.9618 32.823C26.5413 32.6456 27.4428 32.4039 27.4428 32.4039L24.9362 34.1711L23.375 34.1366L23.8427 32.3594H23.8421Z" fill="white"/>
<path d="M21.3504 23.9288C21.7216 23.6911 22.0646 23.5366 22.2736 23.4944C22.938 23.3598 23.4672 23.5881 23.7183 23.6958C24.1064 23.8632 24.2932 24.0541 24.3453 24.1097C24.3786 24.1448 24.5138 24.2923 24.6257 24.5224C24.8545 24.9936 24.8159 25.4625 24.7796 25.692C24.7714 25.7458 24.7527 25.8928 24.8376 26.0046C24.8832 26.0643 24.9441 26.0947 24.9851 26.1105C24.957 26.1263 24.9207 26.1527 24.9137 26.1919C24.9002 26.2662 25.0278 26.309 25.0495 26.3909C25.1203 26.659 24.9798 26.9166 24.8756 27.0009C24.4699 27.3287 23.8407 27.4639 23.8137 27.4335C23.5456 27.5213 23.4719 27.612 23.4643 27.6852C23.4274 28.0271 24.6216 28.6798 25.4944 28.3842C25.5026 28.3812 25.615 28.3286 25.8403 28.2232C26.2249 28.0429 27.144 27.6109 27.1481 27.6196C27.1493 27.622 27.0837 27.6524 26.9971 27.7203C26.9432 27.7631 26.9169 27.7918 26.8964 27.821C26.863 27.8684 26.8507 27.9118 26.846 27.9217C26.8004 28.013 26.664 28.2267 26.4965 28.4169C26.2882 28.6534 26.0839 28.8853 25.7396 29.0784C25.6109 29.151 25.4587 29.2347 25.2368 29.2798C24.9822 29.3319 24.7662 29.3061 24.6333 29.2798C24.6532 29.3067 24.686 29.3448 24.734 29.3805C24.8528 29.4677 24.9617 29.4607 25.1367 29.4812C25.526 29.5268 25.5459 29.6281 25.7402 29.5819C25.8608 29.5532 25.9153 29.4993 25.9919 29.5315C26.0844 29.5702 26.0534 29.6685 26.143 29.7832C26.311 29.9992 26.7108 30.0244 26.7969 30.0853C26.8238 30.1046 26.849 30.1163 26.8987 30.1397C26.8999 30.1403 26.9028 30.1415 26.9069 30.1427C26.9069 30.1427 26.9251 30.1473 26.9479 30.1356C26.9807 30.1192 26.7289 29.1417 26.9479 28.4755C27.0843 28.0604 27.4455 27.6372 27.8915 27.5676C28.104 27.5342 28.3464 27.5798 28.6584 27.7707C29.9825 28.5809 30.38 30.6701 30.325 30.6918C30.3144 30.6958 30.2939 30.6197 30.1681 30.4371C29.9854 30.1725 29.7958 29.9981 29.6652 29.8839C29.1021 29.3922 28.7807 29.1118 28.6414 29.1973C28.4447 29.3184 28.9382 29.9864 28.7831 30.8287C28.6613 31.4879 28.2334 32.0007 27.9044 32.2653C26.7085 33.2265 24.6438 32.6042 23.4596 31.797C21.6923 30.5922 21.4218 28.6534 21.4652 28.3754C21.5061 28.1131 21.5659 27.9229 21.5659 27.9229C21.6232 27.7397 21.6548 27.7063 21.6665 27.6208C21.704 27.341 21.4435 27.0916 21.3727 27.0167C20.8511 26.4641 20.4384 24.5136 21.3528 23.9288H21.3504Z" fill="white"/>
<path d="M9.23095 27.0227C10.0078 25.8906 9.89537 24.4394 10.5159 23.2522C10.541 23.2171 10.5563 23.1714 10.5756 23.1328C9.36735 23.6122 8.00282 23.4729 6.81332 24.0208C5.53483 24.6097 5.04428 26.2154 6.03241 27.3008C6.93976 28.2789 8.48342 28.1133 9.23095 27.0233V27.0227ZM7.56905 27.642C7.84945 27.5829 8.10819 27.5209 8.37278 27.4055C8.62625 27.268 8.83465 27.1011 9.05593 26.9185C8.72752 27.4213 8.16731 27.6976 7.56905 27.642V27.642Z" fill="white"/>
<path d="M5.45066 24.4721C6.12736 24.1197 6.45108 23.3792 7.06573 22.9595C7.08739 22.949 7.10671 22.9302 7.12603 22.9168C6.40835 22.8366 5.77613 22.4116 5.04967 22.3694C4.26935 22.3238 3.60904 22.9829 3.80982 23.7732C3.9989 24.4897 4.79912 24.8117 5.45007 24.4727L5.45066 24.4721ZM4.47424 24.3416C4.62702 24.3861 4.76986 24.423 4.93025 24.4358C5.09065 24.4347 5.23641 24.4071 5.39212 24.3755C5.10001 24.5359 4.75288 24.5254 4.47424 24.3416V24.3416Z" fill="white"/>
<path d="M7.01212 22.2069C7.97684 22.1987 8.76828 21.5495 9.70197 21.4295C9.73241 21.4295 9.7646 21.4201 9.79446 21.416C9.0317 20.9132 8.56281 20.0702 7.76844 19.6054C6.91495 19.1055 5.79218 19.4696 5.56447 20.4759C5.36602 21.3926 6.08312 22.2151 7.01212 22.2075V22.2069ZM5.98653 21.4986C6.13346 21.6367 6.27337 21.7602 6.44664 21.8668C6.62811 21.9575 6.80841 22.0102 7.00217 22.0641C6.58011 22.0769 6.19551 21.8656 5.98711 21.4986H5.98653Z" fill="white"/>
<path d="M6.56097 17.7804C7.57662 18.0462 8.59167 17.5901 9.60614 17.7295C9.63776 17.7383 9.67463 17.7377 9.70742 17.7418C9.05003 16.9966 8.79714 15.9786 8.09585 15.265C7.34188 14.4976 6.0593 14.5602 5.53421 15.5513C5.06531 16.4568 5.58397 17.5246 6.56097 17.7804V17.7804ZM5.68582 16.7449C5.80056 16.9316 5.91237 17.1014 6.06398 17.2617C6.22847 17.4087 6.40292 17.5152 6.59083 17.627C6.14418 17.5205 5.80056 17.1892 5.68582 16.7443V16.7449Z" fill="white"/>
<path d="M7.96818 13.975C8.48449 14.7904 9.45331 15.12 10.0481 15.8494C10.0639 15.8751 10.089 15.8974 10.1089 15.9208C10.1335 15.0076 10.6018 14.1646 10.5778 13.2444C10.5515 12.2557 9.64999 11.4935 8.67533 11.8313C7.79198 12.1468 7.47178 13.1894 7.96877 13.9744L7.96818 13.975ZM8.02848 12.7298C7.98867 12.9271 7.95765 13.1115 7.95882 13.3146C7.97755 13.5166 8.02789 13.6975 8.08409 13.8907C7.85052 13.5394 7.82711 13.101 8.02848 12.7298Z" fill="white"/>
<path d="M5.14805 13.6527C5.85578 14.0812 6.72508 13.9635 7.46032 14.296C7.48257 14.31 7.51008 14.3176 7.53408 14.3276C7.20393 13.6175 7.24139 12.7916 6.87084 12.0949C6.47278 11.3462 5.4905 11.1062 4.87117 11.7379C4.31388 12.3174 4.46667 13.24 5.14805 13.6521V13.6527ZM4.71838 12.6745C4.76346 12.8413 4.8097 12.9947 4.88814 13.1498C4.97946 13.2979 5.08717 13.4173 5.20425 13.5438C4.89048 13.3635 4.7055 13.0357 4.71838 12.6745Z" fill="white"/>
<path d="M6.89671 10.8647C7.64776 11.2118 8.49832 10.9982 9.26635 11.247C9.28976 11.2581 9.31845 11.2628 9.34303 11.2704C8.93619 10.6013 8.88117 9.77647 8.43569 9.12552C7.95684 8.42599 6.95349 8.29662 6.4085 8.99323C5.91912 9.63071 6.17376 10.531 6.89671 10.8647ZM6.36108 9.94038C6.42431 10.1008 6.48753 10.2483 6.58294 10.3941C6.69065 10.531 6.81066 10.6376 6.9412 10.7506C6.60929 10.6065 6.3886 10.3016 6.36108 9.94038Z" fill="white"/>
<path d="M8.78982 8.88633C9.22125 9.7685 10.1649 10.2099 10.6859 11.0142C10.6988 11.0423 10.7222 11.0675 10.7392 11.0932C10.8656 10.1718 11.4334 9.37102 11.5113 8.43734C11.595 7.43399 10.7673 6.56293 9.74341 6.79592C8.81499 7.01661 8.3742 8.03635 8.78982 8.88574V8.88633ZM8.98944 7.63302C8.92739 7.82853 8.87529 8.01118 8.85363 8.21723C8.85012 8.42387 8.88056 8.61237 8.91627 8.81374C8.71899 8.43207 8.74416 7.986 8.98944 7.63302Z" fill="white"/>
<path d="M12.1109 5.95466C11.9172 6.87899 12.3726 7.77053 12.2924 8.68783C12.286 8.71651 12.2883 8.74988 12.286 8.77915C12.9258 8.15513 13.829 7.88292 14.4396 7.22085C15.0952 6.50902 14.9823 5.35991 14.0679 4.932C13.2331 4.55091 12.2971 5.06429 12.1109 5.95408V5.95466ZM13.0025 5.12225C12.8397 5.23405 12.6922 5.34177 12.5547 5.48519C12.43 5.63973 12.3416 5.80071 12.2497 5.97515C12.3252 5.56948 12.6079 5.24576 13.0019 5.12283L13.0025 5.12225Z" fill="white"/>
<path d="M15.3956 9.17487C15.7772 10.0769 16.6928 10.5669 17.1675 11.3964C17.1792 11.4251 17.2003 11.4514 17.2161 11.4784C17.3923 10.5681 18.0005 9.80182 18.1287 8.87691C18.2663 7.88234 17.4901 6.97031 16.458 7.1471C15.5214 7.31628 15.0279 8.30733 15.3956 9.17546V9.17487ZM15.6625 7.93854C15.5899 8.12996 15.5279 8.30909 15.4957 8.51222C15.481 8.71769 15.5009 8.90677 15.5255 9.10989C15.3499 8.71944 15.3991 8.27631 15.6625 7.93854V7.93854Z" fill="white"/>
<path d="M16.3296 5.36605C16.8699 6.10774 17.8094 6.36062 18.4188 7.01625C18.4352 7.03967 18.4604 7.05957 18.4809 7.08065C18.4481 6.21252 18.8403 5.38361 18.7601 4.51198C18.6741 3.57536 17.772 2.90802 16.8676 3.28852C16.0492 3.6421 15.8092 4.65188 16.3296 5.36605ZM16.3103 4.18065C16.2851 4.37031 16.2664 4.5471 16.2798 4.73969C16.3103 4.92994 16.3688 5.09853 16.4344 5.27883C16.1908 4.9598 16.1417 4.54534 16.3103 4.18065V4.18065Z" fill="white"/>
<path d="M20.9727 4.71584C21.5299 5.49967 22.5116 5.77597 23.1427 6.47024C23.1597 6.49541 23.186 6.5159 23.2071 6.53814C23.1831 5.62787 23.604 4.76384 23.5308 3.85005C23.4518 2.86719 22.5146 2.15771 21.5621 2.54523C20.6999 2.90583 20.437 3.96128 20.9732 4.71584H20.9727ZM20.9662 3.47365C20.9375 3.6721 20.9159 3.85708 20.9282 4.05962C20.9574 4.25982 21.0171 4.4372 21.0839 4.62627C20.8328 4.28909 20.7859 3.85415 20.9668 3.47424L20.9662 3.47365Z" fill="white"/>
<path d="M19.3099 7.62957C18.9171 8.88639 19.4299 10.1848 19.1957 11.448C19.1829 11.4873 19.1817 11.5335 19.1747 11.5745C20.147 10.7942 21.4372 10.5372 22.3726 9.70008C23.3783 8.79976 23.3754 7.18995 22.1636 6.47344C21.0561 5.83303 19.688 6.42017 19.3099 7.63016V7.62957ZM20.6586 6.59344C20.418 6.72632 20.1985 6.85628 19.9883 7.03716C19.7946 7.23502 19.6506 7.44693 19.4995 7.67582C19.6588 7.12263 20.0943 6.7111 20.6586 6.59344Z" fill="white"/>
<path d="M22.0964 10.6125C21.8131 11.315 22.0467 12.083 21.8541 12.796C21.8447 12.8177 21.8418 12.844 21.8359 12.8674C22.4295 12.4653 23.1812 12.3775 23.756 11.9408C24.3742 11.4713 24.4473 10.5481 23.7859 10.0816C23.1806 9.66302 22.3692 9.9364 22.0964 10.6125V10.6125ZM22.9177 10.081C22.7737 10.146 22.642 10.2104 22.5132 10.304C22.3932 10.4082 22.3007 10.523 22.2036 10.6476C22.3206 10.338 22.5893 10.122 22.9177 10.081Z" fill="white"/>
<path d="M24.0241 6.52426C23.996 7.84079 24.8483 8.946 24.9742 10.2245C24.9724 10.266 24.9841 10.3099 24.9888 10.3515C25.7059 9.33235 26.8744 8.72706 27.5411 7.66283C28.2576 6.51899 27.8075 4.97299 26.4447 4.62117C25.2031 4.31326 24.0516 5.2569 24.0241 6.52426ZM25.0321 5.15446C24.8378 5.34881 24.6634 5.53496 24.5112 5.76677C24.38 6.01029 24.3004 6.25381 24.2191 6.51606C24.2185 5.94005 24.5229 5.42432 25.0321 5.15446V5.15446Z" fill="white"/>
<path d="M24.4103 12.7144C24.0895 13.9918 24.6749 15.2591 24.5127 16.5335C24.5016 16.5733 24.5033 16.6196 24.4987 16.6605C25.4247 15.8264 26.6985 15.4968 27.5854 14.6076C28.5384 13.6517 28.4441 12.0442 27.1938 11.3979C26.0517 10.8213 24.7193 11.4851 24.4103 12.7144V12.7144ZM25.6981 11.6034C25.4657 11.7497 25.2538 11.892 25.0542 12.084C24.8721 12.2924 24.7404 12.5119 24.6023 12.7496C24.7299 12.1882 25.1414 11.7527 25.6981 11.6034Z" fill="white"/>
<path d="M28.2053 9.68771C28.2556 11.0037 29.1729 12.0562 29.3749 13.3247C29.3755 13.3663 29.3901 13.4096 29.3971 13.4506C30.0522 12.3898 31.182 11.7161 31.7837 10.6138C32.4306 9.42897 31.8885 7.91283 30.507 7.64296C29.249 7.40998 28.1561 8.42094 28.2047 9.68771H28.2053ZM29.1296 8.25996C28.9475 8.46601 28.7842 8.66153 28.6467 8.90213C28.5302 9.15326 28.4652 9.40087 28.3996 9.66781C28.3645 9.09296 28.6379 8.55968 29.1296 8.25996Z" fill="white"/>
<path d="M27.6015 4.41117C28.0289 5.45315 29.075 6.02859 29.6106 6.98862C29.6235 7.0214 29.6481 7.05243 29.6656 7.08345C29.8799 6.03912 30.5893 5.16515 30.7486 4.10326C30.9195 2.96176 30.0385 1.9028 28.8496 2.09246C27.7707 2.2751 27.19 3.40841 27.6015 4.41175V4.41117ZM27.9241 2.99278C27.838 3.21172 27.7649 3.41719 27.7251 3.65075C27.7057 3.88666 27.7262 4.10501 27.752 4.338C27.5547 3.88666 27.6174 3.37797 27.9241 2.99278V2.99278Z" fill="white"/>
<path d="M31.1184 5.82208C31.256 6.71187 31.9614 7.3552 32.1979 8.20109C32.2014 8.22918 32.2148 8.25787 32.223 8.2848C32.5848 7.51326 33.2996 6.96651 33.6221 6.17097C33.9687 5.31572 33.4816 4.32818 32.5222 4.25325C31.6494 4.19354 30.9861 4.96566 31.1184 5.82267V5.82208ZM31.6347 4.7801C31.527 4.93405 31.4316 5.07981 31.3567 5.25426C31.2975 5.43397 31.273 5.60724 31.249 5.7934C31.1799 5.40587 31.3239 5.02186 31.6347 4.7801Z" fill="white"/>
<path d="M32.9246 8.69458C32.7531 9.99999 33.4802 11.1918 33.4661 12.4762C33.4597 12.5171 33.4667 12.5622 33.4673 12.6044C34.2915 11.6689 35.5185 11.1948 36.297 10.2096C37.1336 9.1506 36.8549 7.56479 35.5378 7.06662C34.3366 6.62524 33.0897 7.43834 32.9246 8.69517V8.69458ZM34.0761 7.44244C33.8618 7.61455 33.6681 7.78021 33.4919 7.99446C33.335 8.22276 33.2296 8.45574 33.1202 8.70746C33.1822 8.13495 33.5411 7.65494 34.0761 7.44244Z" fill="white"/>
<path d="M36.5895 11.7768C36.0762 12.9891 36.4596 14.332 36.1037 15.566C36.0867 15.604 36.0814 15.6491 36.0703 15.6895C37.1141 15.0075 38.423 14.8775 39.4357 14.1353C40.5245 13.3374 40.6785 11.7346 39.5422 10.9034C38.5026 10.1582 37.0836 10.6089 36.5895 11.7762V11.7768ZM38.0331 10.877C37.7808 10.9859 37.5496 11.0936 37.323 11.2528C37.1111 11.4308 36.9472 11.6275 36.7745 11.8412C36.987 11.3061 37.4606 10.9391 38.0331 10.877Z" fill="white"/>
<path d="M40.5589 13.8737C39.9495 14.383 39.7862 15.209 39.2552 15.7739C39.2359 15.7897 39.2201 15.8125 39.2031 15.8313C39.9507 15.7528 40.6894 16.0432 41.437 15.9237C42.2407 15.795 42.7646 14.9772 42.3835 14.2185C42.0305 13.5324 41.1448 13.3838 40.5583 13.8743L40.5589 13.8737ZM41.581 13.7883C41.4153 13.7771 41.2619 13.7719 41.0963 13.7947C40.9335 13.8316 40.7913 13.8925 40.6397 13.9592C40.9007 13.7303 41.2561 13.6642 41.581 13.7883V13.7883Z" fill="white"/>
<path d="M27.8265 16.968C28.3212 17.8982 29.3479 18.3366 29.9351 19.1802C29.9503 19.21 29.9755 19.2364 29.9954 19.2633C30.0978 18.2717 30.6773 17.3924 30.7265 16.3897C30.7798 15.3114 29.8619 14.4075 28.7725 14.6944C27.7855 14.9648 27.35 16.073 27.8265 16.9686V16.968ZM27.9951 15.6181C27.9354 15.83 27.8862 16.0279 27.871 16.2486C27.8745 16.4699 27.9143 16.6712 27.96 16.8861C27.7346 16.4845 27.7457 16.0051 27.9957 15.6181H27.9951Z" fill="white"/>
<path d="M30.9016 15.2437C30.9794 16.5579 31.9184 17.5911 32.1467 18.8556C32.1484 18.8971 32.1636 18.9404 32.1718 18.9808C32.8046 17.9072 33.9204 17.2095 34.4993 16.0955C35.1216 14.8978 34.5485 13.3928 33.1617 13.1516C31.8991 12.9443 30.8272 13.9781 30.9021 15.2432L30.9016 15.2437ZM31.796 13.7973C31.6181 14.0068 31.4588 14.2058 31.3265 14.4494C31.2153 14.7028 31.1556 14.9522 31.0959 15.2197C31.0491 14.6461 31.3107 14.1069 31.7966 13.7973H31.796Z" fill="white"/>
<path d="M34.8025 17.1385C34.6046 17.9276 34.9658 18.7109 34.8657 19.4982C34.8587 19.5228 34.8598 19.5515 34.8569 19.5767C35.4294 19.0615 36.2162 18.8578 36.7641 18.3081C37.353 17.7175 37.2945 16.7247 36.5217 16.3254C35.8164 15.9689 34.9927 16.3793 34.8019 17.1385H34.8025ZM35.598 16.4519C35.4546 16.5426 35.3235 16.6304 35.1999 16.7487C35.0876 16.8775 35.0062 17.0133 34.9207 17.1596C34.9997 16.8125 35.2538 16.5438 35.5974 16.4513L35.598 16.4519Z" fill="white"/>
<path d="M38.0887 17.0459C37.5273 17.8549 37.6023 18.8963 37.1527 19.7457C37.1345 19.7709 37.1234 19.8031 37.1094 19.8312C37.9775 19.4917 38.9563 19.597 39.8109 19.2089C40.73 18.7915 41.0882 17.6418 40.3834 16.8592C39.7366 16.1544 38.6285 16.2674 38.0881 17.0459H38.0887ZM39.2829 16.608C39.0815 16.649 38.896 16.6929 38.7051 16.7749C38.5225 16.8726 38.3726 16.9915 38.2134 17.1214C38.4511 16.762 38.8538 16.5659 39.2823 16.608H39.2829Z" fill="white"/>
<path d="M42.5781 16.9998C41.9804 17.5507 41.854 18.403 41.3394 19.0065C41.3201 19.0235 41.3055 19.0475 41.2891 19.0674C42.0495 18.9497 42.8187 19.2102 43.5773 19.051C44.3928 18.8801 44.8874 18.0178 44.4607 17.2609C44.0661 16.5766 43.1535 16.4689 42.5781 16.9992V16.9998ZM43.6189 16.8617C43.4491 16.8587 43.2917 16.8605 43.1237 16.8921C42.9592 16.9384 42.8169 17.0068 42.6653 17.0829C42.9211 16.8359 43.2811 16.7504 43.6189 16.8617V16.8617Z" fill="white"/>
<path d="M38.7676 20.3198C38.4263 21.0574 38.6353 21.8933 38.39 22.6478C38.3789 22.6707 38.3748 22.6988 38.3672 22.7234C39.0252 22.3241 39.8353 22.2709 40.4757 21.8336C41.1636 21.3635 41.2918 20.3777 40.6075 19.8421C39.9811 19.3609 39.0966 19.6103 38.7676 20.3204V20.3198ZM39.6767 19.7941C39.5186 19.8561 39.374 19.9182 39.2306 20.0119C39.096 20.1172 38.9912 20.2355 38.88 20.3637C39.0222 20.0376 39.322 19.821 39.6761 19.7947L39.6767 19.7941Z" fill="white"/>
<path d="M42.2363 20.3039C41.593 20.8009 41.3934 21.6392 40.8285 22.1959C40.808 22.2111 40.791 22.2339 40.7734 22.2521C41.5415 22.2011 42.2849 22.5272 43.0547 22.4341C43.8818 22.334 44.4497 21.5186 44.0896 20.7277C43.756 20.0118 42.8557 19.8256 42.2369 20.3039H42.2363ZM43.2853 20.2565C43.1167 20.2389 42.9599 20.2266 42.7895 20.2442C42.6215 20.2758 42.474 20.332 42.3165 20.3946C42.5928 20.171 42.9587 20.1172 43.2853 20.2565V20.2565Z" fill="white"/>
<path d="M40.763 22.8003C39.8855 23.2223 39.4423 24.1548 38.6415 24.6659C38.6134 24.6788 38.5883 24.701 38.5625 24.718C39.4751 24.8497 40.2654 25.4169 41.1897 25.5001C42.1837 25.5896 43.0524 24.7748 42.8282 23.7585C42.6151 22.8366 41.6077 22.3934 40.763 22.7997V22.8003ZM42.004 23.0063C41.8108 22.9437 41.6299 22.8904 41.4262 22.8682C41.2213 22.8635 41.0346 22.8922 40.8344 22.9267C41.2137 22.7335 41.6563 22.7616 42.0046 23.0069L42.004 23.0063Z" fill="white"/>
<path d="M39.768 26.2559C38.8747 26.6615 38.407 27.5905 37.5886 28.0875C37.5605 28.0998 37.5342 28.1221 37.5078 28.1385C38.4239 28.2912 39.2072 28.8813 40.1374 28.9855C41.1366 29.0979 42.0305 28.2965 41.8268 27.2674C41.633 26.3337 40.6279 25.8648 39.7674 26.2553L39.768 26.2559ZM41.0137 26.4912C40.8205 26.4233 40.639 26.3659 40.4347 26.339C40.2287 26.3296 40.0396 26.3548 39.8371 26.3846C40.2234 26.1985 40.6683 26.2365 41.0137 26.4912Z" fill="white"/>
<path d="M27.9599 23.9972C27.9698 23.5271 27.5957 23.1367 27.1257 23.1267C26.7809 23.1197 26.4794 23.3193 26.3389 23.6114C26.2113 23.3135 25.918 23.1016 25.5732 23.0939C25.1032 23.084 24.7127 23.4581 24.7034 23.9281C24.701 24.027 24.7162 24.1225 24.7455 24.212C24.7789 24.3139 24.831 24.407 24.8977 24.4877C24.9264 24.5223 24.9574 24.5545 24.9908 24.5843L26.2634 25.9026C26.271 25.9108 26.2816 25.9149 26.2921 25.9155C26.3026 25.9161 26.3132 25.912 26.3214 25.9044L27.6976 24.5937C27.7866 24.5076 27.8574 24.4029 27.9031 24.2852C27.9376 24.1956 27.9575 24.0985 27.9593 23.9972H27.9599Z" fill="white"/>
<path d="M15.763 20.1075C16.9361 20.7561 18.3357 20.5108 19.5475 21.0025C19.5838 21.0236 19.6294 21.0341 19.6692 21.0493C19.0903 19.9207 19.0973 18.5814 18.454 17.4767C17.7621 16.2896 16.1558 15.9635 15.194 17.0254C14.3288 17.9989 14.6344 19.4828 15.7636 20.1075H15.763ZM15.0055 18.5503C15.0892 18.8173 15.1735 19.0625 15.3105 19.3096C15.4679 19.5431 15.65 19.7299 15.8479 19.9277C15.3286 19.6555 15.0078 19.1375 15.0055 18.5509V18.5503Z" fill="white"/>
<path d="M18.4925 17.2118C18.5299 18.5517 19.4525 19.6324 19.6451 20.9261C19.6451 20.9682 19.6597 21.0127 19.6667 21.0543C20.3446 19.9818 21.5019 19.3075 22.1259 18.1923C22.7968 16.9934 22.2612 15.4439 20.858 15.1553C19.5801 14.9048 18.4567 15.9222 18.493 17.2124L18.4925 17.2118ZM19.4484 15.7682C19.2611 15.976 19.0925 16.1733 18.9496 16.4168C18.8285 16.6715 18.76 16.9226 18.6903 17.1936C18.6605 16.6083 18.9444 16.0685 19.4478 15.7682H19.4484Z" fill="white"/>
<path d="M30.2981 23.0695C30.5686 24.0863 31.4683 24.7461 31.8482 25.6996C31.8558 25.7318 31.8751 25.7635 31.888 25.7939C32.2129 24.852 32.9757 24.1285 33.2514 23.1632C33.5476 22.1259 32.8592 21.0388 31.7346 21.071C30.7126 21.1102 30.0382 22.0902 30.2981 23.0689V23.0695ZM30.7682 21.794C30.6622 21.9866 30.5691 22.168 30.5042 22.3793C30.4573 22.5954 30.4503 22.8002 30.4462 23.0198C30.318 22.5778 30.4374 22.1142 30.7682 21.794Z" fill="white"/>
<path d="M33.4105 23.0203C32.6729 23.7708 32.5628 24.8812 31.9359 25.6937C31.9125 25.7172 31.8949 25.7494 31.875 25.7757C32.8508 25.5755 33.8624 25.8635 34.833 25.61C35.8767 25.3372 36.4621 24.1911 35.8615 23.2392C35.3077 22.3799 34.1205 22.2979 33.4105 23.0203V23.0203ZM34.7475 22.7756C34.528 22.7826 34.3243 22.7949 34.1088 22.8464C33.8993 22.9167 33.719 23.0144 33.5281 23.1221C33.8431 22.7867 34.3032 22.6533 34.7469 22.7756H34.7475Z" fill="white"/>
</g>
<defs>
<clipPath id="clip0_109_276">
<rect width="48" height="48" fill="white"/>
</clipPath>
</defs>
</svg>
